<?xml version="1.0" encoding="UTF-8" standalone="no"?>
<svg
   xmlns:osb="http://www.openswatchbook.org/uri/2009/osb"
   xmlns:dc="http://purl.org/dc/elements/1.1/"
   xmlns:cc="http://creativecommons.org/ns#"
   xmlns:rdf="http://www.w3.org/1999/02/22-rdf-syntax-ns#"
   xmlns:svg="http://www.w3.org/2000/svg"
   xmlns="http://www.w3.org/2000/svg"
   xmlns:xlink="http://www.w3.org/1999/xlink"
   id="svg8"
   version="1.1"
   viewBox="0 0 47.747185 139.21172"
   height="139.21172mm"
   width="47.747185mm">
  <defs
     id="defs2">
    <linearGradient
       osb:paint="solid"
       id="linearGradient4406">
      <stop
         id="stop4404"
         offset="0"
         style="stop-color:#000000;stop-opacity:1;" />
    </linearGradient>
    <linearGradient
       osb:paint="solid"
       id="linearGradient4354">
      <stop
         id="stop4352"
         offset="0"
         style="stop-color:#000000;stop-opacity:1;" />
    </linearGradient>
    <linearGradient
       gradientUnits="userSpaceOnUse"
       y2="194.73807"
       x2="101.61432"
       y1="194.73807"
       x1="53.850533"
       id="linearGradient4356"
       xlink:href="#linearGradient4354" />
    <clipPath
       id="clipPath5269"
       clipPathUnits="userSpaceOnUse">
      <path
         style="fill:#ffffff;fill-opacity:1;stroke:none;stroke-width:0.26458332px;stroke-linecap:butt;stroke-linejoin:miter;stroke-opacity:1"
         d="m 83.764439,125.8366 c 2.034284,1.86373 2.480848,2.47569 4.361958,2.58262 1.881108,0.10693 6.867107,-0.77192 7.039579,-1.40568 0.172468,-0.63376 -2.309117,-2.52905 -3.610812,-2.99933 -1.301694,-0.47028 -3.339515,-0.82347 -5.116935,-0.29236 -1.777421,0.5311 -2.67379,2.11475 -2.67379,2.11475 z"
         id="path5271" />
    </clipPath>
  </defs>
  <metadata
     id="metadata5">
    <rdf:RDF>
      <cc:Work
         rdf:about="">
        <dc:format>image/svg+xml</dc:format>
        <dc:type
           rdf:resource="http://purl.org/dc/dcmitype/StillImage" />
        <dc:title></dc:title>
      </cc:Work>
    </rdf:RDF>
  </metadata>
  <g
     transform="translate(-53.850534,-69.698798)"
     id="layer20">
    <path
       id="path4412"
       d="m 74.398761,124.98091 -2.802051,-1.483 -2.190332,1.13157 2.203185,18.21797 2.789198,1.17372 2.58055,-11.24875 -2.58055,-7.72908"
       style="fill:#fcc8a6;fill-opacity:1;stroke:none;stroke-width:0.26458332px;stroke-linecap:butt;stroke-linejoin:miter;stroke-opacity:1" />
  </g>
  <g
     transform="translate(-53.850534,-69.698798)"
     id="layer22">
    <path
       id="path4512"
       d="m 72.41242,126.17679 -0.921967,0.64596 1.360533,11.40814 1.547775,1.80591 1.290275,-7.26438 -1.290275,-4.28311"
       style="fill:#faaa75;fill-opacity:1;stroke:none;stroke-width:0.26458332px;stroke-linecap:butt;stroke-linejoin:miter;stroke-opacity:1" />
  </g>
  <g
     transform="translate(-53.850534,-69.698798)"
     id="layer21">
    <ellipse
       ry="0.54022181"
       rx="0.61291486"
       cy="142.32619"
       cx="73.785843"
       id="path4505"
       style="fill:#fcc8a6;fill-opacity:1;stroke:none;stroke-width:0.26458332" />
  </g>
  <g
     transform="translate(-53.850534,-69.698798)"
     style="display:inline"
     id="layer2">
    <path
       id="path3530"
       d="m 88.348192,208.91051 c -3.337544,-10.71004 -6.627856,-19.4453 -14.578978,-24.90546 0,0 0.08563,-3.58081 3.380377,-3.58081 h 24.448129 v 28.48627 z"
       style="display:inline;fill:#995d02;fill-opacity:1;stroke:none;stroke-width:0.26458332px;stroke-linecap:butt;stroke-linejoin:miter;stroke-opacity:1" />
  </g>
  <g
     transform="translate(-53.850534,-69.698798)"
     style="display:inline"
     id="layer4">
    <rect
       y="191.22682"
       x="91.187126"
       height="17.683685"
       width="10.410594"
       id="rect4364"
       style="fill:#d4d4d4;fill-opacity:1;stroke:none;stroke-width:0.18458532" />
  </g>
  <g
     transform="translate(-53.850534,-69.698798)"
     style="display:inline"
     id="layer5">
    <g
       id="g4373" />
    <path
       id="path4402"
       d="m 100.06085,198.69988 -2.612137,10.21063 h 4.149007 v -16.37166 l -4.831535,1.98338 z"
       style="fill:#bc032b;fill-opacity:1;stroke:none;stroke-width:0.26458332px;stroke-linecap:butt;stroke-linejoin:miter;stroke-opacity:1" />
  </g>
  <g
     transform="translate(-53.850534,-69.698798)"
     style="display:inline"
     id="layer8">
    <path
       id="path4414"
       d="m 85.753844,188.84641 h -3.608755 v 20.0641 h 19.452631 z"
       style="fill:#666666;fill-opacity:1;stroke:none;stroke-width:0.26458332px;stroke-linecap:butt;stroke-linejoin:miter;stroke-opacity:1" />
  </g>
  <g
     transform="translate(-53.850534,-69.698798)"
     style="display:inline"
     id="layer3">
    <path
       id="path3530-3"
       d="m 53.850534,208.91051 9.752819,-12.40936 9.161492,-2.45463 1.004369,-6.06792 v -3.97355 c 9.495494,-0.10744 14.534734,7.65768 14.534734,13.79243 0,5.0221 0.04424,11.11303 0.04424,11.11303 z"
       style="fill:#fb9a06;fill-opacity:1;stroke:none;stroke-width:0.26458332px;stroke-linecap:butt;stroke-linejoin:miter;stroke-opacity:1" />
  </g>
  <g
     transform="translate(-53.850534,-69.698798)"
     style="display:inline"
     id="layer7">
    <path
       id="path4411"
       d="m 101.59772,192.53885 -11.419834,-10.93978 -4.424042,7.24734 8.655984,12.96127 z"
       style="fill:#ffffff;fill-opacity:1;stroke:none;stroke-width:0.26458332px;stroke-linecap:butt;stroke-linejoin:miter;stroke-opacity:1" />
  </g>
  <g
     transform="translate(-53.850534,-69.698798)"
     style="display:inline"
     id="layer9">
    <path
       id="path86"
       d="M 101.59772,192.53885 89.670881,186.1355 v -19.42818 h 11.926839 z"
       style="fill:#fcc8a6;fill-opacity:1;stroke:none;stroke-width:0.26458332px;stroke-linecap:butt;stroke-linejoin:miter;stroke-opacity:1" />
  </g>
  <g
     transform="translate(-53.850534,-69.698798)"
     id="layer17">
    <path
       id="path4377"
       d="m 95.634298,170.98178 5.963422,5.96342 v -9.90577 z"
       style="fill:#faaa75;fill-opacity:1;stroke:none;stroke-width:0.26458332px;stroke-linecap:butt;stroke-linejoin:miter;stroke-opacity:1" />
  </g>
  <g
     transform="translate(-53.850534,-69.698798)"
     style="display:inline;opacity:1"
     id="layer11">
    <path
       id="path1032"
       d="M 101.59772,167.93046 82.105563,155.5154 74.398761,132.77242 V 112.58441 L 101.59772,90.386238 Z"
       style="fill:#fcc8a6;fill-opacity:1;stroke:none;stroke-width:0.26458332px;stroke-linecap:butt;stroke-linejoin:miter;stroke-opacity:1" />
  </g>
  <g
     transform="translate(-53.850534,-69.698798)"
     style="display:inline"
     id="layer12">
    <path
       id="path1035"
       d="m 74.398761,132.77242 h 2.580552 l 6.316374,18.80617 14.695694,-6.60695 h 3.606339 v 4.39638 h -3.453579 l -11.579437,6.68539 6.853034,3.9566 2.015995,-2.016 h 6.163987 v 12.98777 H 91.408536 L 74.398761,149.49324 v -16.72082 0"
       style="display:inline;opacity:1;fill:#d7a080;fill-opacity:1;stroke:none;stroke-width:0.26458332px;stroke-linecap:butt;stroke-linejoin:miter;stroke-opacity:1" />
  </g>
  <g
     transform="translate(-53.850534,-69.698798)"
     style="display:inline"
     id="layer13">
    <path
       id="path1039"
       d="M 76.979311,103.24182 V 121.927 h -2.58055 l -0.05747,-18.68518 h 2.638025"
       style="fill:#8c5233;fill-opacity:1;stroke:none;stroke-width:0.21046261px;stroke-linecap:butt;stroke-linejoin:miter;stroke-opacity:1" />
    <rect
       y="90.386238"
       x="90.514137"
       height="9.633626"
       width="11.083583"
       id="rect1050"
       style="fill:#8c5233;fill-opacity:1;stroke:none;stroke-width:0.26458332" />
  </g>
  <g
     transform="translate(-53.850534,-69.698798)"
     style="display:inline"
     id="layer14">
    <path
       id="path1042"
       d="m 74.398761,112.58441 h 17.8387 v -10.63427 c 0,0 0.181551,-7.6529 9.360259,-7.6529 V 70.926674 c -27.159882,0 -27.328359,20.623708 -27.328359,20.623708 z"
       style="fill:#bc032b;fill-opacity:1;stroke:none;stroke-width:0.26458332px;stroke-linecap:butt;stroke-linejoin:miter;stroke-opacity:1" />
  </g>
  <g
     transform="translate(-53.850534,-69.698798)"
     style="display:inline"
     id="layer15">
    <path
       d="m 101.59772,112.58441 v 0 h -9.360259 v -5.31713 h 9.360259 v 5.31713"
       style="fill:#000000;fill-opacity:1;stroke:none;stroke-width:0.26458332px;stroke-linecap:butt;stroke-linejoin:miter;stroke-opacity:1"
       id="path1045" />
  </g>
  <g
     transform="translate(-53.850534,-69.698798)"
     style="display:inline"
     id="layer16">
    <path
       id="path1053"
       d="m 74.370024,112.58441 c 0,0 -4.609924,1.67161 -7.31487,3.62896 -0.70093,0.5072 -2.41919,1.92102 0.932406,1.92102 h 6.399536 z"
       style="fill:#000000;fill-opacity:1;stroke:none;stroke-width:0.26458332px;stroke-linecap:butt;stroke-linejoin:miter;stroke-opacity:1" />
  </g>
  <g
     transform="translate(-53.850534,-69.698798)"
     id="layer24">
    <path
       id="path4520"
       d="m 101.59772,69.703551 c 0,0 -1.56138,-0.04524 -1.871083,0.143436 C 99.268507,70.126108 99.247894,70.98 99.247894,70.98 h 2.349826"
       style="fill:#000000;fill-opacity:1;stroke:none;stroke-width:0.33905679px;stroke-linecap:butt;stroke-linejoin:miter;stroke-opacity:1" />
  </g>
  <g
     transform="translate(-53.850534,-69.698798)"
     style="display:inline"
     id="layer18">
    <path
       id="path4395"
       d="m 101.59772,151.8378 -2.920452,-0.96559 -5.860791,2.98658 3.163256,1.06632 5.617987,-1.06632 v -2.02099"
       style="fill:#fb7c6b;fill-opacity:1;stroke:none;stroke-width:0.26458332px;stroke-linecap:butt;stroke-linejoin:miter;stroke-opacity:1" />
  </g>
  <g
     transform="translate(-53.850534,-69.698798)"
     style="display:inline"
     id="layer19">
    <path
       id="path4398"
       d="m 101.59772,156.92467 h -3.72598 l -6.022215,-3.06588 h 9.748195 z"
       style="fill:#fc8a7d;fill-opacity:1;stroke:none;stroke-width:0.26458332px;stroke-linecap:butt;stroke-linejoin:miter;stroke-opacity:1" />
  </g>
  <g
     transform="translate(-53.850534,-69.698798)"
     id="layer23">
    <path
       id="path4515"
       d="m 101.59772,119.27256 h -1.72889 l -2.158704,18.21907 h -1.432102 l -1.405239,4.65097 1.985481,-0.30753 1.756071,1.32165 h 2.983383 z"
       style="fill:#faaa75;fill-opacity:1;stroke:none;stroke-width:0.26458332px;stroke-linecap:butt;stroke-linejoin:miter;stroke-opacity:1" />
  </g>
  <g
     transform="translate(-53.850534,-69.698798)"
     id="layer25">
    <path
       id="path4523"
       d="m 94.134985,117.5398 c -11.038894,-2.23093 -15.516644,3.98771 -15.516644,3.98771 0,0 7.351083,-3.55999 14.579775,-2.37111 3.469418,0.44096 3.469515,-1.10476 0.936869,-1.6166 z"
       style="fill:#8c5233;fill-opacity:1;stroke:none;stroke-width:0.26458332px;stroke-linecap:butt;stroke-linejoin:miter;stroke-opacity:1" />
  </g>
  <g
     transform="translate(-53.850534,-69.698798)"
     style="display:inline"
     id="layer26">
    <path
       id="path4526"
       d="m 83.764439,125.8366 c 2.034283,1.86373 2.480847,2.47569 4.361958,2.58262 1.881108,0.10693 6.867107,-0.77192 7.039578,-1.40568 0.172469,-0.63376 -2.309117,-2.52905 -3.610811,-2.99933 -1.301694,-0.47028 -3.339515,-0.82347 -5.116936,-0.29236 -1.77742,0.5311 -2.673789,2.11475 -2.673789,2.11475 z"
       style="fill:#ffffff;fill-opacity:1;stroke:none;stroke-width:0.26458332px;stroke-linecap:butt;stroke-linejoin:miter;stroke-opacity:1" />
  </g>
  <g
     transform="translate(-53.850534,-69.698798)"
     style="display:inline"
     id="layer27">
    <ellipse
       clip-path="url(#clipPath5269)"
       ry="2.4952829"
       rx="2.5477159"
       cy="125.82069"
       cx="88.989037"
       id="path4533"
       style="opacity:1;fill:#8c5233;fill-opacity:1;stroke:none;stroke-width:0.31040445" />
  </g>
  <g
     transform="translate(-53.850534,-69.698798)"
     id="g4591"
     style="display:inline" />
  <g
     transform="translate(-53.850534,-69.698798)"
     id="layer28">
    <circle
       r="1.1762322"
       cy="125.82069"
       cx="88.989037"
       id="path4550"
       style="fill:#000000;stroke-width:0.17809935" />
  </g>
  <g
     style="display:inline"
     transform="translate(-53.850534,-69.698798)"
     id="layer29">
    <circle
       r="0.73151726"
       cy="126.83516"
       cx="90.041428"
       id="path4553"
       style="fill:#ffffff;stroke-width:0.26458332" />
  </g>
  <g
     transform="translate(-53.850534,-69.698798)"
     id="layer30">
    <path
       id="path4556"
       d="m 83.6533,125.87391 c -0.02447,-1.09165 0.207329,-2.53323 3.087344,-3.34036 -1.147018,0.84524 -1.427988,0.83941 -2.143419,1.79734 -0.610692,0.70381 -0.198386,1.1104 -0.943925,1.54302 z"
       style="fill:#8c5233;fill-opacity:1;stroke:none;stroke-width:0.28123504px;stroke-linecap:butt;stroke-linejoin:miter;stroke-opacity:1" />
    <path
       id="path4556-3"
       d="m 95.206717,126.89057 c 0.109905,-1.05272 -1.112566,-4.69205 -2.533718,-4.19039 0.777738,0.43636 1.139605,1.04696 1.496522,1.93605 0.553955,1.18435 0.423266,1.73882 1.037196,2.25434 z"
       style="fill:#8c5233;fill-opacity:1;stroke:none;stroke-width:0.29318058px;stroke-linecap:butt;stroke-linejoin:miter;stroke-opacity:1" />
  </g>
  <circle
     r="0.64576083"
     cy="72.203651"
     cx="19.476278"
     id="path4509"
     style="fill:#000000;fill-opacity:1;stroke:none;stroke-width:0.26458332" />
</svg>
